<?xml version="1.0" encoding="UTF-8" standalone="no"?>
<!DOCTYPE svg PUBLIC "-//W3C//DTD SVG 1.1//EN" "http://www.w3.org/Graphics/SVG/1.1/DTD/svg11.dtd">
<svg width="100%" height="100%" viewBox="0 0 338 338" version="1.1" xmlns="http://www.w3.org/2000/svg" xmlns:xlink="http://www.w3.org/1999/xlink" xml:space="preserve" xmlns:serif="http://www.serif.com/" style="fill-rule:evenodd;clip-rule:evenodd;stroke-linejoin:round;stroke-miterlimit:1.41421;">
    <g transform="matrix(0.5,0,0,0.5,-78,-395)">
        <g transform="matrix(1,0,0,1,-129,253)">
            <rect x="285" y="537" width="676" height="676" style="fill:white;"/>
        </g>
        <g transform="matrix(1,0,0,1,86.0389,158.819)">
            <text x="137px" y="1234px" style="font-family:'ArialMT', 'Arial', sans-serif;font-size:739.905px;fill:rgb(194,24,91);">C</text>
        </g>
        <g transform="matrix(0.656568,0,0,0.656568,269.792,489.414)">
            <path d="M193.179,994.29C210.641,971.047 228.343,942.885 207.811,904.511C197.218,884.712 188.302,864.289 188.302,838.758C188.302,800.221 202.151,767.826 229.849,741.573C257.548,715.32 294.398,702.194 340.401,702.194C386.646,702.194 423.858,715.621 452.037,742.476C480.217,769.332 494.307,802.028 494.307,840.564C494.307,865.132 484.79,884.681 474.979,904.692C455.404,944.617 473.534,974.479 490.514,998.083C501.039,1012.71 508.301,1029.1 512.303,1047.25C514.757,1058.38 515.984,1070.17 515.984,1082.62C515.984,1112.16 509.17,1138.62 495.54,1162.01C488.275,1174.48 479.073,1186.07 467.934,1196.79C435.9,1227.62 393.751,1243.03 341.485,1243.03C289.22,1243.03 247.07,1227.56 215.037,1196.61C183.003,1165.66 166.986,1127.06 166.986,1080.82C166.986,1046.37 175.717,1017.53 193.179,994.29ZM254.778,836.59C254.778,861.639 262.846,882.112 278.984,898.008C295.121,913.905 316.075,921.853 341.847,921.853C366.895,921.853 387.428,913.965 403.445,898.189C419.462,882.413 427.47,863.084 427.47,840.203C427.47,816.359 419.221,796.307 402.723,780.05C386.224,763.792 365.691,755.663 341.124,755.663C316.316,755.663 295.723,763.611 279.345,779.508C262.967,795.404 254.778,814.432 254.778,836.59ZM233.823,1081.18C233.823,1099.72 238.219,1117.67 247.01,1135.01C255.801,1152.35 268.868,1165.78 286.209,1175.29C303.551,1184.81 316.925,1188.04 336.916,1188.04C367.986,1188.04 398.929,1179.57 419.161,1159.58C439.393,1139.59 449.509,1114.17 449.509,1083.35C449.509,1052.04 439.092,1026.14 418.258,1005.67C397.424,985.197 371.351,974.961 340.04,974.961C309.452,974.961 284.102,985.077 263.99,1005.31C243.879,1025.54 233.823,1050.83 233.823,1081.18Z" style="fill:rgb(194,24,91);fill-rule:nonzero;"/>
        </g>
    </g>
</svg>
